<svg xmlns="http://www.w3.org/2000/svg" xmlns:xlink="http://www.w3.org/1999/xlink" width="500" zoomAndPan="magnify" viewBox="0 0 375 374.999991" height="500" preserveAspectRatio="xMidYMid meet" version="1.0"><defs><g/><clipPath id="b6a49aa6e0"><path d="M 183.285156 86.800781 L 223 86.800781 L 223 126 L 183.285156 126 Z M 183.285156 86.800781 " clip-rule="nonzero"/></clipPath><clipPath id="95ccaa527d"><path d="M 184 87 L 230.535156 87 L 230.535156 148 L 184 148 Z M 184 87 " clip-rule="nonzero"/></clipPath><clipPath id="0f2326183d"><path d="M 198 146 L 216 146 L 216 151.300781 L 198 151.300781 Z M 198 146 " clip-rule="nonzero"/></clipPath></defs><g clip-path="url(#b6a49aa6e0)"><path fill="#ffbd59" d="M 222.464844 106.316406 C 222.464844 106.957031 222.433594 107.59375 222.371094 108.230469 C 222.308594 108.867188 222.214844 109.5 222.089844 110.125 C 221.964844 110.753906 221.808594 111.371094 221.621094 111.984375 C 221.4375 112.59375 221.222656 113.195312 220.976562 113.789062 C 220.730469 114.378906 220.457031 114.957031 220.15625 115.519531 C 219.851562 116.082031 219.523438 116.628906 219.167969 117.160156 C 218.8125 117.691406 218.429688 118.207031 218.023438 118.699219 C 217.617188 119.195312 217.1875 119.667969 216.734375 120.121094 C 216.28125 120.570312 215.808594 121 215.3125 121.40625 C 214.816406 121.8125 214.304688 122.191406 213.769531 122.546875 C 213.238281 122.902344 212.691406 123.230469 212.125 123.53125 C 211.558594 123.832031 210.980469 124.105469 210.390625 124.351562 C 209.796875 124.59375 209.195312 124.808594 208.582031 124.996094 C 207.96875 125.179688 207.347656 125.335938 206.71875 125.460938 C 206.089844 125.585938 205.457031 125.679688 204.820312 125.742188 C 204.183594 125.804688 203.542969 125.835938 202.902344 125.835938 C 202.261719 125.835938 201.621094 125.804688 200.984375 125.742188 C 200.347656 125.679688 199.714844 125.585938 199.085938 125.460938 C 198.457031 125.335938 197.835938 125.179688 197.222656 124.996094 C 196.609375 124.808594 196.007812 124.59375 195.417969 124.351562 C 194.824219 124.105469 194.246094 123.832031 193.679688 123.53125 C 193.117188 123.230469 192.566406 122.902344 192.035156 122.546875 C 191.5 122.191406 190.988281 121.8125 190.492188 121.40625 C 189.996094 121 189.523438 120.570312 189.070312 120.121094 C 188.617188 119.667969 188.1875 119.195312 187.78125 118.699219 C 187.375 118.207031 186.992188 117.691406 186.636719 117.160156 C 186.28125 116.628906 185.953125 116.082031 185.648438 115.519531 C 185.347656 114.957031 185.074219 114.378906 184.828125 113.789062 C 184.582031 113.195312 184.367188 112.59375 184.183594 111.984375 C 183.996094 111.371094 183.839844 110.753906 183.714844 110.125 C 183.589844 109.5 183.496094 108.867188 183.433594 108.230469 C 183.371094 107.59375 183.339844 106.957031 183.339844 106.316406 C 183.339844 105.679688 183.371094 105.042969 183.433594 104.40625 C 183.496094 103.769531 183.589844 103.136719 183.714844 102.511719 C 183.839844 101.882812 183.996094 101.265625 184.183594 100.652344 C 184.367188 100.039062 184.582031 99.441406 184.828125 98.847656 C 185.074219 98.257812 185.347656 97.679688 185.648438 97.117188 C 185.953125 96.554688 186.28125 96.007812 186.636719 95.476562 C 186.992188 94.941406 187.375 94.429688 187.78125 93.9375 C 188.1875 93.441406 188.617188 92.96875 189.070312 92.515625 C 189.523438 92.066406 189.996094 91.636719 190.492188 91.230469 C 190.988281 90.824219 191.5 90.445312 192.035156 90.089844 C 192.566406 89.734375 193.117188 89.40625 193.679688 89.105469 C 194.246094 88.804688 194.824219 88.53125 195.417969 88.285156 C 196.007812 88.042969 196.609375 87.828125 197.222656 87.640625 C 197.835938 87.457031 198.457031 87.300781 199.085938 87.175781 C 199.714844 87.050781 200.347656 86.957031 200.984375 86.894531 C 201.621094 86.832031 202.261719 86.800781 202.902344 86.800781 C 203.542969 86.800781 204.183594 86.832031 204.820312 86.894531 C 205.457031 86.957031 206.089844 87.050781 206.71875 87.175781 C 207.347656 87.300781 207.96875 87.457031 208.582031 87.640625 C 209.195312 87.828125 209.796875 88.042969 210.390625 88.285156 C 210.980469 88.53125 211.558594 88.804688 212.125 89.105469 C 212.691406 89.40625 213.238281 89.734375 213.769531 90.089844 C 214.304688 90.445312 214.816406 90.824219 215.3125 91.230469 C 215.808594 91.636719 216.28125 92.066406 216.734375 92.515625 C 217.1875 92.96875 217.617188 93.441406 218.023438 93.9375 C 218.429688 94.429688 218.8125 94.941406 219.167969 95.476562 C 219.523438 96.007812 219.851562 96.554688 220.15625 97.117188 C 220.457031 97.679688 220.730469 98.257812 220.976562 98.847656 C 221.222656 99.441406 221.4375 100.039062 221.621094 100.652344 C 221.808594 101.265625 221.964844 101.882812 222.089844 102.511719 C 222.214844 103.136719 222.308594 103.769531 222.371094 104.40625 C 222.433594 105.042969 222.464844 105.679688 222.464844 106.316406 Z M 222.464844 106.316406 " fill-opacity="1" fill-rule="nonzero"/></g><g clip-path="url(#95ccaa527d)"><path fill="#04182d" d="M 218.273438 147.421875 L 196.265625 147.421875 C 195.890625 147.421875 195.589844 147.121094 195.589844 146.75 L 195.589844 134.210938 C 195.589844 132.050781 194.585938 130.015625 192.839844 128.632812 C 186.578125 123.667969 183.34375 115.941406 184.195312 107.964844 C 185.363281 97.003906 194.574219 88.164062 205.621094 87.402344 C 212.132812 86.953125 218.347656 89.140625 223.101562 93.566406 C 227.789062 97.933594 230.476562 104.105469 230.476562 110.5 C 230.476562 117.613281 227.269531 124.226562 221.675781 128.652344 C 219.941406 130.019531 218.949219 132.046875 218.949219 134.210938 L 218.949219 146.75 C 218.949219 147.121094 218.648438 147.421875 218.273438 147.421875 Z M 196.941406 146.074219 L 217.597656 146.074219 L 217.597656 134.210938 C 217.597656 131.632812 218.777344 129.21875 220.832031 127.59375 C 226.101562 123.425781 229.125 117.195312 229.125 110.5 C 229.125 104.476562 226.59375 98.667969 222.175781 94.554688 C 217.699219 90.386719 211.859375 88.328125 205.714844 88.75 C 195.3125 89.46875 186.640625 97.789062 185.542969 108.109375 C 184.742188 115.621094 187.785156 122.898438 193.683594 127.574219 C 195.753906 129.21875 196.941406 131.636719 196.941406 134.210938 Z M 196.941406 146.074219 " fill-opacity="1" fill-rule="nonzero"/></g><g clip-path="url(#0f2326183d)"><path fill="#04182d" d="M 207.105469 151.300781 C 202.296875 151.300781 198.535156 149.300781 198.535156 146.75 C 198.535156 146.375 198.835938 146.074219 199.210938 146.074219 C 199.585938 146.074219 199.886719 146.375 199.886719 146.75 C 199.886719 148.261719 202.851562 149.949219 207.105469 149.949219 C 211.359375 149.949219 214.320312 148.261719 214.320312 146.75 C 214.320312 146.375 214.625 146.074219 215 146.074219 C 215.371094 146.074219 215.675781 146.375 215.675781 146.75 C 215.675781 149.300781 211.910156 151.300781 207.105469 151.300781 Z M 207.105469 151.300781 " fill-opacity="1" fill-rule="nonzero"/></g><path fill="#04182d" d="M 193.644531 134.886719 C 193.292969 134.886719 192.996094 134.613281 192.96875 134.257812 C 192.945312 133.886719 193.226562 133.5625 193.597656 133.539062 L 220.847656 131.652344 C 221.230469 131.632812 221.542969 131.910156 221.570312 132.28125 C 221.59375 132.652344 221.3125 132.976562 220.941406 133 L 193.691406 134.886719 C 193.675781 134.886719 193.660156 134.886719 193.644531 134.886719 Z M 193.644531 134.886719 " fill-opacity="1" fill-rule="nonzero"/><path fill="#04182d" d="M 193.644531 139.207031 C 193.292969 139.207031 192.996094 138.933594 192.96875 138.578125 C 192.945312 138.203125 193.226562 137.882812 193.597656 137.855469 L 220.847656 135.972656 C 221.230469 135.953125 221.542969 136.226562 221.570312 136.601562 C 221.59375 136.972656 221.3125 137.292969 220.941406 137.320312 L 193.691406 139.203125 C 193.675781 139.203125 193.660156 139.207031 193.644531 139.207031 Z M 193.644531 139.207031 " fill-opacity="1" fill-rule="nonzero"/><path fill="#04182d" d="M 193.644531 143.523438 C 193.292969 143.523438 192.996094 143.253906 192.96875 142.898438 C 192.945312 142.523438 193.226562 142.203125 193.597656 142.175781 L 220.847656 140.292969 C 221.230469 140.265625 221.542969 140.546875 221.570312 140.917969 C 221.59375 141.292969 221.3125 141.613281 220.941406 141.640625 L 193.691406 143.523438 C 193.675781 143.523438 193.660156 143.523438 193.644531 143.523438 Z M 193.644531 143.523438 " fill-opacity="1" fill-rule="nonzero"/><g fill="#ffde59" fill-opacity="1"><g transform="translate(202.478638, 231.438344)"><g><path d="M -58.703125 -11.574219 C -58.703125 -6.117188 -55.230469 -3.308594 -49.9375 -3.308594 L -7.9375 -3.308594 C -2.8125 -3.308594 0.828125 -6.117188 0.828125 -11.574219 C 0.828125 -17.03125 -2.8125 -19.84375 -7.9375 -19.84375 L -49.9375 -19.84375 C -55.230469 -19.84375 -58.703125 -17.03125 -58.703125 -11.574219 Z M -58.703125 -11.574219 "/></g></g></g><g fill="#5ce1e6" fill-opacity="1"><g transform="translate(77.264569, 224.847618)"><g><path d="M 11.574219 -58.703125 C 6.117188 -58.703125 3.308594 -55.230469 3.308594 -49.9375 L 3.308594 -7.9375 C 3.308594 -2.8125 6.117188 0.828125 11.574219 0.828125 C 17.03125 0.828125 19.84375 -2.8125 19.84375 -7.9375 L 19.84375 -49.9375 C 19.84375 -55.230469 17.03125 -58.703125 11.574219 -58.703125 Z M 11.574219 -58.703125 "/></g></g></g><g fill="#ff8bd2" fill-opacity="1"><g transform="translate(276.972362, 206.530468)"><g><path d="M -14.820312 -57.96875 C -19.746094 -55.621094 -20.789062 -51.277344 -18.511719 -46.5 L -0.429688 -8.589844 C 1.773438 -3.960938 5.878906 -1.886719 10.804688 -4.234375 C 15.730469 -6.585938 16.699219 -11.078125 14.496094 -15.707031 L -3.585938 -53.617188 C -5.863281 -58.394531 -9.894531 -60.316406 -14.820312 -57.96875 Z M -14.820312 -57.96875 "/></g></g></g><path stroke-linecap="butt" transform="matrix(0.75, 0, 0, 0.75, 80.563, 126.079869)" fill="none" stroke-linejoin="miter" d="M 19.197251 37.362261 C 9.723292 37.362261 5.129542 43.24247 5.129542 52.216429 L 5.129542 113.429974 C 5.129542 122.403933 9.723292 128.284142 19.197251 128.284142 C 28.70246 128.284142 33.296211 122.403933 33.296211 113.429974 L 33.296211 101.893515 L 48.931628 101.893515 C 55.837879 101.893515 61.468087 96.518515 61.468087 89.607056 C 61.468087 82.695597 55.837879 77.070597 48.931628 77.070597 L 33.296211 77.070597 L 33.296211 62.190388 L 61.718087 62.190388 C 68.624338 62.190388 74.285797 56.810179 74.285797 49.903929 C 74.285797 42.99247 68.624338 37.362261 61.718087 37.362261 Z M 94.744131 36.081011 C 85.270172 36.081011 80.676422 41.96122 80.676422 50.935179 L 80.676422 112.148724 C 80.676422 121.122683 85.270172 126.997684 94.744131 126.997684 L 137.264967 126.997684 C 144.171218 126.997684 149.832676 121.372683 149.832676 114.461224 C 149.832676 107.523724 144.171218 101.893515 137.264967 101.893515 L 108.84309 101.893515 L 108.84309 50.935179 C 108.84309 41.96122 104.24934 36.081011 94.744131 36.081011 Z M 169.009761 36.081011 C 160.567052 36.081011 156.223302 41.46122 156.223302 49.64872 L 156.223302 114.711225 C 156.223302 122.653933 160.567052 128.284142 169.009761 128.284142 C 177.48372 128.284142 181.82747 122.653933 181.82747 114.711225 L 181.82747 49.64872 C 181.82747 41.46122 177.48372 36.081011 169.009761 36.081011 Z M 239.192057 36.081011 C 209.73893 36.081011 189.764971 53.997679 189.764971 82.164347 C 189.764971 110.367474 209.73893 128.284142 239.192057 128.284142 C 252.009767 128.284142 262.764976 123.685183 269.676434 118.028933 C 272.738935 115.461225 274.551435 112.148724 274.551435 108.054974 C 274.551435 100.362265 269.926434 95.768515 261.733726 95.768515 C 259.171225 95.768515 257.639975 96.268515 255.572267 97.549765 C 249.947266 101.393515 245.353516 103.424765 239.192057 103.424765 C 226.405598 103.424765 217.931639 95.487265 217.931639 82.164347 C 217.931639 68.846638 226.405598 60.903929 239.192057 60.903929 C 245.353516 60.903929 249.947266 62.971638 255.572267 66.815388 C 257.639975 68.096638 259.171225 68.596638 261.733726 68.596638 C 269.926434 68.596638 274.551435 64.002888 274.551435 56.310179 C 274.551435 52.216429 272.738935 48.86747 269.676434 46.33622 C 262.764976 40.67997 252.009767 36.081011 239.192057 36.081011 Z M 239.192057 36.081011 " stroke="#000000" stroke-width="2.321178" stroke-opacity="1" stroke-miterlimit="4"/><g fill="#000000" fill-opacity="1"><g transform="translate(79.908874, 252.184831)"><g/></g></g><g fill="#000000" fill-opacity="1"><g transform="translate(84.842467, 252.184831)"><g><path d="M 2.394531 -12.601562 C 1.53125 -12.601562 1.097656 -12.058594 1.097656 -11.230469 L 1.097656 -1.1875 C 1.097656 -0.359375 1.53125 0.179688 2.394531 0.179688 C 3.257812 0.179688 3.707031 -0.359375 3.707031 -1.1875 L 3.707031 -4.15625 L 6.964844 -4.15625 C 7.613281 -4.15625 8.136719 -4.660156 8.136719 -5.308594 C 8.136719 -5.957031 7.613281 -6.480469 6.964844 -6.480469 L 3.707031 -6.480469 L 3.707031 -10.277344 L 8.765625 -10.277344 C 9.414062 -10.277344 9.9375 -10.78125 9.9375 -11.429688 C 9.9375 -12.078125 9.414062 -12.601562 8.765625 -12.601562 Z M 2.394531 -12.601562 "/></g></g></g><g fill="#000000" fill-opacity="1"><g transform="translate(95.066435, 252.184831)"><g><path d="M 7.074219 -10.457031 C 9.414062 -10.457031 10.800781 -8.839844 10.800781 -6.300781 C 10.800781 -3.761719 9.414062 -2.160156 7.074219 -2.160156 C 4.714844 -2.160156 3.382812 -3.761719 3.382812 -6.300781 C 3.382812 -8.839844 4.714844 -10.457031 7.074219 -10.457031 Z M 7.074219 -12.78125 C 3.078125 -12.78125 0.757812 -10.117188 0.757812 -6.300781 C 0.757812 -2.484375 3.078125 0.179688 7.074219 0.179688 C 11.070312 0.179688 13.410156 -2.484375 13.410156 -6.300781 C 13.410156 -10.117188 11.070312 -12.78125 7.074219 -12.78125 Z M 7.074219 -12.78125 "/></g></g></g><g fill="#000000" fill-opacity="1"><g transform="translate(109.178395, 252.184831)"><g><path d="M 8.441406 -5.507812 C 9.898438 -5.902344 10.835938 -7.109375 10.835938 -9.019531 C 10.835938 -11.375 9.394531 -12.601562 7.128906 -12.601562 L 2.410156 -12.601562 C 1.546875 -12.601562 1.097656 -12.058594 1.097656 -11.230469 L 1.097656 -1.1875 C 1.097656 -0.359375 1.546875 0.179688 2.410156 0.179688 C 3.277344 0.179688 3.707031 -0.359375 3.707031 -1.1875 L 3.707031 -4.699219 L 5.058594 -4.699219 C 5.886719 -4.699219 6.535156 -4.355469 6.929688 -3.671875 L 8.890625 -0.46875 C 9.109375 -0.0703125 9.558594 0.179688 9.988281 0.179688 C 10.691406 0.179688 11.304688 -0.414062 11.304688 -1.117188 C 11.304688 -1.367188 11.230469 -1.601562 11.089844 -1.816406 L 9.574219 -4.339844 C 9.269531 -4.859375 8.890625 -5.238281 8.441406 -5.507812 Z M 3.707031 -6.875 L 3.707031 -10.441406 L 6.445312 -10.441406 C 7.488281 -10.441406 8.207031 -9.792969 8.207031 -8.675781 C 8.207031 -7.558594 7.488281 -6.875 6.445312 -6.875 Z M 3.707031 -6.875 "/></g></g></g><g fill="#000000" fill-opacity="1"><g transform="translate(120.806358, 252.184831)"><g><path d="M 3.457031 -12.78125 C 2.808594 -12.78125 2.230469 -12.292969 2.160156 -11.644531 L 0.757812 -1.261719 L 0.757812 -1.078125 C 0.757812 -0.34375 1.277344 0.179688 2.015625 0.179688 C 2.699219 0.179688 3.257812 -0.304688 3.3125 -0.988281 L 4.285156 -7.867188 L 6.496094 -2.304688 C 6.679688 -1.871094 7.039062 -1.621094 7.597656 -1.621094 C 8.117188 -1.621094 8.53125 -1.835938 8.710938 -2.304688 L 10.90625 -7.867188 L 11.878906 -0.988281 C 11.933594 -0.304688 12.492188 0.179688 13.175781 0.179688 C 13.914062 0.179688 14.4375 -0.378906 14.4375 -1.117188 L 14.4375 -1.261719 L 13.050781 -11.644531 C 12.976562 -12.292969 12.382812 -12.78125 11.734375 -12.78125 C 11.269531 -12.78125 10.835938 -12.5625 10.65625 -12.132812 L 7.613281 -5.074219 L 4.535156 -12.132812 C 4.355469 -12.527344 3.941406 -12.78125 3.457031 -12.78125 Z M 3.457031 -12.78125 "/></g></g></g><g fill="#000000" fill-opacity="1"><g transform="translate(135.97137, 252.184831)"><g/></g></g><g fill="#000000" fill-opacity="1"><g transform="translate(140.90335, 252.184831)"><g/></g></g><g fill="#000000" fill-opacity="1"><g transform="translate(145.83533, 252.184831)"><g/></g></g><g fill="#000000" fill-opacity="1"><g transform="translate(150.76731, 252.184831)"><g/></g></g><g fill="#000000" fill-opacity="1"><g transform="translate(155.699289, 252.184831)"><g/></g></g><g fill="#000000" fill-opacity="1"><g transform="translate(160.639337, 252.184831)"><g><path d="M 2.394531 -12.78125 C 1.53125 -12.78125 1.097656 -12.238281 1.097656 -11.410156 L 1.097656 -1.367188 C 1.097656 -0.539062 1.53125 0 2.394531 0 L 8.746094 0 C 9.394531 0 9.9375 -0.523438 9.9375 -1.171875 C 9.9375 -1.816406 9.394531 -2.339844 8.746094 -2.339844 L 3.707031 -2.339844 L 3.707031 -11.410156 C 3.707031 -12.238281 3.257812 -12.78125 2.394531 -12.78125 Z M 2.394531 -12.78125 "/></g></g></g><g fill="#000000" fill-opacity="1"><g transform="translate(170.827302, 252.184831)"><g><path d="M 1.476562 -12.601562 C 0.828125 -12.601562 0.324219 -12.078125 0.324219 -11.429688 C 0.324219 -10.78125 0.828125 -10.261719 1.476562 -10.261719 L 2.84375 -10.261719 L 2.84375 -2.339844 L 1.476562 -2.339844 C 0.828125 -2.339844 0.324219 -1.816406 0.324219 -1.171875 C 0.324219 -0.523438 0.828125 0 1.476562 0 L 6.820312 0 C 7.46875 0 7.992188 -0.523438 7.992188 -1.171875 C 7.992188 -1.816406 7.46875 -2.339844 6.820312 -2.339844 L 5.4375 -2.339844 L 5.4375 -10.261719 L 6.820312 -10.261719 C 7.46875 -10.261719 7.992188 -10.78125 7.992188 -11.429688 C 7.992188 -12.078125 7.46875 -12.601562 6.820312 -12.601562 Z M 1.476562 -12.601562 "/></g></g></g><g fill="#000000" fill-opacity="1"><g transform="translate(179.107274, 252.184831)"><g><path d="M 2.394531 -12.761719 C 1.675781 -12.761719 1.097656 -12.203125 1.097656 -11.484375 L 1.097656 -1.117188 C 1.097656 -0.394531 1.675781 0.179688 2.394531 0.179688 C 3.113281 0.179688 3.707031 -0.394531 3.707031 -1.117188 L 3.707031 -8.152344 L 9.433594 -0.289062 C 9.664062 0.0195312 10.042969 0.160156 10.441406 0.160156 C 11.160156 0.160156 11.734375 -0.394531 11.734375 -1.117188 L 11.734375 -11.484375 C 11.734375 -12.203125 11.160156 -12.78125 10.441406 -12.78125 C 9.703125 -12.78125 9.125 -12.203125 9.125 -11.484375 L 9.125 -4.445312 L 3.402344 -12.3125 C 3.167969 -12.617188 2.789062 -12.761719 2.394531 -12.761719 Z M 2.394531 -12.761719 "/></g></g></g><g fill="#000000" fill-opacity="1"><g transform="translate(191.923237, 252.184831)"><g><path d="M 2.394531 -12.78125 C 1.53125 -12.78125 1.097656 -12.238281 1.097656 -11.410156 L 1.097656 -1.1875 C 1.097656 -0.359375 1.53125 0.179688 2.394531 0.179688 C 3.257812 0.179688 3.707031 -0.359375 3.707031 -1.1875 L 3.707031 -5.128906 L 5.941406 -5.128906 L 9.898438 -0.324219 C 10.132812 -0.0195312 10.492188 0.179688 10.90625 0.179688 C 11.59375 0.179688 12.167969 -0.378906 12.167969 -1.097656 C 12.167969 -1.386719 12.078125 -1.675781 11.878906 -1.90625 L 8.242188 -6.300781 L 11.878906 -10.691406 C 12.078125 -10.925781 12.167969 -11.214844 12.167969 -11.503906 C 12.167969 -12.222656 11.59375 -12.78125 10.90625 -12.78125 C 10.546875 -12.78125 10.152344 -12.601562 9.898438 -12.277344 L 5.941406 -7.46875 L 3.707031 -7.46875 L 3.707031 -11.410156 C 3.707031 -12.238281 3.257812 -12.78125 2.394531 -12.78125 Z M 2.394531 -12.78125 "/></g></g></g><g fill="#000000" fill-opacity="1"><g transform="translate(204.385432, 252.184831)"><g/></g></g><g fill="#000000" fill-opacity="1"><g transform="translate(209.317412, 252.184831)"><g/></g></g><g fill="#000000" fill-opacity="1"><g transform="translate(214.249392, 252.184831)"><g/></g></g><g fill="#000000" fill-opacity="1"><g transform="translate(219.181371, 252.184831)"><g/></g></g><g fill="#000000" fill-opacity="1"><g transform="translate(224.113351, 252.184831)"><g/></g></g><g fill="#000000" fill-opacity="1"><g transform="translate(229.053395, 252.184831)"><g><path d="M 7.054688 -12.78125 C 3.257812 -12.78125 0.71875 -10.296875 0.71875 -6.300781 C 0.71875 -2.304688 3.257812 0.179688 7.054688 0.179688 C 8.820312 0.179688 10.207031 -0.414062 11.089844 -1.132812 C 11.375 -1.367188 11.539062 -1.691406 11.539062 -2.070312 C 11.539062 -2.789062 11.105469 -3.222656 10.351562 -3.222656 C 10.117188 -3.222656 9.972656 -3.167969 9.773438 -3.042969 C 8.980469 -2.464844 8.152344 -2.140625 7.054688 -2.140625 C 4.789062 -2.140625 3.328125 -3.671875 3.328125 -6.300781 C 3.328125 -8.929688 4.789062 -10.457031 7.054688 -10.457031 C 8.152344 -10.457031 8.980469 -10.132812 9.773438 -9.558594 C 9.972656 -9.433594 10.117188 -9.378906 10.351562 -9.378906 C 11.105469 -9.378906 11.539062 -9.808594 11.539062 -10.53125 C 11.539062 -10.90625 11.375 -11.230469 11.089844 -11.464844 C 10.207031 -12.1875 8.820312 -12.78125 7.054688 -12.78125 Z M 7.054688 -12.78125 "/></g></g></g><g fill="#000000" fill-opacity="1"><g transform="translate(241.329357, 252.184831)"><g><path d="M 9.109375 -7.46875 L 3.707031 -7.46875 L 3.707031 -11.410156 C 3.707031 -12.238281 3.257812 -12.78125 2.394531 -12.78125 C 1.53125 -12.78125 1.097656 -12.238281 1.097656 -11.410156 L 1.097656 -1.1875 C 1.097656 -0.359375 1.53125 0.179688 2.394531 0.179688 C 3.257812 0.179688 3.707031 -0.359375 3.707031 -1.1875 L 3.707031 -5.128906 L 9.109375 -5.128906 L 9.109375 -1.1875 C 9.109375 -0.359375 9.574219 0.179688 10.441406 0.179688 C 11.304688 0.179688 11.734375 -0.359375 11.734375 -1.1875 L 11.734375 -11.410156 C 11.734375 -12.238281 11.304688 -12.78125 10.441406 -12.78125 C 9.574219 -12.78125 9.109375 -12.238281 9.109375 -11.410156 Z M 9.109375 -7.46875 "/></g></g></g><g fill="#000000" fill-opacity="1"><g transform="translate(254.145321, 252.184831)"><g><path d="M 6.121094 -12.78125 C 6.101562 -12.78125 6.085938 -12.78125 6.085938 -12.78125 C 5.578125 -12.78125 5.113281 -12.472656 4.894531 -12.023438 L 0.449219 -1.691406 C 0.359375 -1.492188 0.324219 -1.3125 0.324219 -1.117188 C 0.324219 -0.394531 0.898438 0.179688 1.621094 0.179688 C 2.160156 0.179688 2.609375 -0.0546875 2.808594 -0.574219 L 3.707031 -3.023438 L 8.460938 -3.023438 L 9.359375 -0.574219 C 9.558594 -0.0546875 10.007812 0.179688 10.546875 0.179688 C 11.269531 0.179688 11.863281 -0.394531 11.863281 -1.117188 C 11.863281 -1.3125 11.808594 -1.492188 11.71875 -1.691406 L 7.273438 -12.023438 C 7.054688 -12.472656 6.625 -12.761719 6.121094 -12.78125 Z M 7.722656 -5.058594 L 4.464844 -5.058594 L 6.101562 -9.503906 Z M 7.722656 -5.058594 "/></g></g></g><g fill="#000000" fill-opacity="1"><g transform="translate(266.277282, 252.184831)"><g><path d="M 1.476562 -12.601562 C 0.828125 -12.601562 0.324219 -12.078125 0.324219 -11.429688 C 0.324219 -10.78125 0.828125 -10.261719 1.476562 -10.261719 L 3.886719 -10.261719 L 3.886719 -1.1875 C 3.886719 -0.359375 4.320312 0.179688 5.183594 0.179688 C 6.046875 0.179688 6.496094 -0.359375 6.496094 -1.1875 L 6.496094 -10.261719 L 8.890625 -10.261719 C 9.539062 -10.261719 10.0625 -10.78125 10.0625 -11.429688 C 10.0625 -12.078125 9.539062 -12.601562 8.890625 -12.601562 Z M 1.476562 -12.601562 "/></g></g></g></svg>